HIERARCHY
ROOT Hips
{
    OFFSET   0.000000   0.000000   0.000000
    CHANNELS 6 Xposition Yposition Zposition Zrotation Xrotation Yrotation
    JOINT Chest
    {
        OFFSET   0.000000   8.007230   0.000000
        CHANNELS 3 Zrotation Xrotation Yrotation
        JOINT Chest2
        {
            OFFSET   0.000000  22.077100   0.000000
            CHANNELS 3 Zrotation Xrotation Yrotation
            JOINT Neck
            {
                OFFSET   0.000000  23.254700   0.000000
                CHANNELS 3 Zrotation Xrotation Yrotation
                JOINT Head
                {
                    OFFSET   0.000010  14.370000   1.956610
                    CHANNELS 3 Zrotation Xrotation Yrotation
                    End Site
                    {
                        OFFSET   0.000000  19.566000   0.000000
                    }
                }
            }
            JOINT LeftCollar
            {
                OFFSET   3.911900  19.017000  -0.467063
                CHANNELS 3 Zrotation Xrotation Yrotation
                JOINT LeftShoulder
                {
                    OFFSET  10.383700   0.000000   0.000000
                    CHANNELS 3 Zrotation Xrotation Yrotation
                    JOINT LeftElbow
                    {
                        OFFSET  26.662100   0.001671   0.000522
                        CHANNELS 3 Zrotation Xrotation Yrotation
                        JOINT LeftWrist
                        {
                            OFFSET  28.869000   0.000037  -0.000114
                            CHANNELS 3 Zrotation Xrotation Yrotation
                            JOINT LeftFinger0
                            {
                                OFFSET   2.044650  -2.323450   3.252850
                                CHANNELS 3 Zrotation Xrotation Yrotation
                                JOINT LeftFinger01
                                {
                                    OFFSET   3.088140   0.000000   0.000000
                                    CHANNELS 3 Zrotation Xrotation Yrotation
                                    JOINT LeftFinger02
                                    {
                                        OFFSET   2.639460   0.000000   0.000000
                                        CHANNELS 3 Zrotation Xrotation Yrotation
                                        End Site
                                        {
                                            OFFSET   2.582190   0.000000   0.000000
                                        }
                                    }
                                }
                            }
                            JOINT LeftFinger1
                            {
                                OFFSET   8.364480   0.000000   3.252850
                                CHANNELS 3 Zrotation Xrotation Yrotation
                                JOINT LeftFinger11
                                {
                                    OFFSET   4.646930   0.000000   0.000000
                                    CHANNELS 3 Zrotation Xrotation Yrotation
                                    JOINT LeftFinger12
                                    {
                                        OFFSET   2.323470   0.000000   0.000000
                                        CHANNELS 3 Zrotation Xrotation Yrotation
                                        End Site
                                        {
                                            OFFSET   2.273050   0.000000   0.000000
                                        }
                                    }
                                }
                            }
                            JOINT LeftFinger2
                            {
                                OFFSET   8.364490   0.000016   1.078090
                                CHANNELS 3 Zrotation Xrotation Yrotation
                                JOINT LeftFinger21
                                {
                                    OFFSET   5.111620   0.000000   0.000000
                                    CHANNELS 3 Zrotation Xrotation Yrotation
                                    JOINT LeftFinger22
                                    {
                                        OFFSET   2.788150   0.000013   0.000000
                                        CHANNELS 3 Zrotation Xrotation Yrotation
                                        End Site
                                        {
                                            OFFSET   2.727660   0.000000   0.000000
                                        }
                                    }
                                }
                            }
                            JOINT LeftFinger3
                            {
                                OFFSET   7.899780   0.000016  -1.078090
                                CHANNELS 3 Zrotation Xrotation Yrotation
                                JOINT LeftFinger31
                                {
                                    OFFSET   4.646930   0.000000   0.000000
                                    CHANNELS 3 Zrotation Xrotation Yrotation
                                    JOINT LeftFinger32
                                    {
                                        OFFSET   2.323470   0.000000   0.000000
                                        CHANNELS 3 Zrotation Xrotation Yrotation
                                        End Site
                                        {
                                            OFFSET   2.273050   0.000000   0.000000
                                        }
                                    }
                                }
                            }
                            JOINT LeftFinger4
                            {
                                OFFSET   7.435080   0.000000  -3.252850
                                CHANNELS 3 Zrotation Xrotation Yrotation
                                JOINT LeftFinger41
                                {
                                    OFFSET   3.717550   0.000000   0.000000
                                    CHANNELS 3 Zrotation Xrotation Yrotation
                                    JOINT LeftFinger42
                                    {
                                        OFFSET   1.858760   0.000000   0.000000
                                        CHANNELS 3 Zrotation Xrotation Yrotation
                                        End Site
                                        {
                                            OFFSET   1.818440   0.000000   0.000000
                                        }
                                    }
                                }
                            }
                        }
                    }
                }
            }
            JOINT RightCollar
            {
                OFFSET  -3.911900  19.017000  -0.467064
                CHANNELS 3 Zrotation Xrotation Yrotation
                JOINT RightShoulder
                {
                    OFFSET -10.383700   0.000000   0.000000
                    CHANNELS 3 Zrotation Xrotation Yrotation
                    JOINT RightElbow
                    {
                        OFFSET -26.662100   0.001633   0.000260
                        CHANNELS 3 Zrotation Xrotation Yrotation
                        JOINT RightWrist
                        {
                            OFFSET -28.869000  -0.000045  -0.000080
                            CHANNELS 3 Zrotation Xrotation Yrotation
                            JOINT RightFinger0
                            {
                                OFFSET  -2.044660  -2.323490   3.252850
                                CHANNELS 3 Zrotation Xrotation Yrotation
                                JOINT RightFinger01
                                {
                                    OFFSET  -3.088140   0.000000   0.000000
                                    CHANNELS 3 Zrotation Xrotation Yrotation
                                    JOINT RightFinger02
                                    {
                                        OFFSET  -2.639450   0.000000   0.000000
                                        CHANNELS 3 Zrotation Xrotation Yrotation
                                        End Site
                                        {
                                            OFFSET  -2.582190   0.000000   0.000000
                                        }
                                    }
                                }
                            }
                            JOINT RightFinger1
                            {
                                OFFSET  -8.364480   0.000000   3.252850
                                CHANNELS 3 Zrotation Xrotation Yrotation
                                JOINT RightFinger11
                                {
                                    OFFSET  -4.646920   0.000000   0.000000
                                    CHANNELS 3 Zrotation Xrotation Yrotation
                                    JOINT RightFinger12
                                    {
                                        OFFSET  -2.323470   0.000000   0.000000
                                        CHANNELS 3 Zrotation Xrotation Yrotation
                                        End Site
                                        {
                                            OFFSET  -2.273050   0.000000   0.000000
                                        }
                                    }
                                }
                            }
                            JOINT RightFinger2
                            {
                                OFFSET  -8.364480   0.000000   1.078090
                                CHANNELS 3 Zrotation Xrotation Yrotation
                                JOINT RightFinger21
                                {
                                    OFFSET  -5.111610   0.000000   0.000000
                                    CHANNELS 3 Zrotation Xrotation Yrotation
                                    JOINT RightFinger22
                                    {
                                        OFFSET  -2.788160   0.000000   0.000000
                                        CHANNELS 3 Zrotation Xrotation Yrotation
                                        End Site
                                        {
                                            OFFSET  -2.727660   0.000000   0.000000
                                        }
                                    }
                                }
                            }
                            JOINT RightFinger3
                            {
                                OFFSET  -7.899780   0.000000  -1.078090
                                CHANNELS 3 Zrotation Xrotation Yrotation
                                JOINT RightFinger31
                                {
                                    OFFSET  -4.646930   0.000000   0.000000
                                    CHANNELS 3 Zrotation Xrotation Yrotation
                                    JOINT RightFinger32
                                    {
                                        OFFSET  -2.323470   0.000000   0.000000
                                        CHANNELS 3 Zrotation Xrotation Yrotation
                                        End Site
                                        {
                                            OFFSET  -2.273050   0.000000   0.000000
                                        }
                                    }
                                }
                            }
                            JOINT RightFinger4
                            {
                                OFFSET  -7.435090   0.000000  -3.252850
                                CHANNELS 3 Zrotation Xrotation Yrotation
                                JOINT RightFinger41
                                {
                                    OFFSET  -3.717550   0.000000   0.000000
                                    CHANNELS 3 Zrotation Xrotation Yrotation
                                    JOINT RightFinger42
                                    {
                                        OFFSET  -1.858760   0.000000   0.000000
                                        CHANNELS 3 Zrotation Xrotation Yrotation
                                        End Site
                                        {
                                            OFFSET  -1.818440   0.000000   0.000000
                                        }
                                    }
                                }
                            }
                        }
                    }
                }
            }
        }
    }
    JOINT LeftHip
    {
        OFFSET   9.782990   0.000000   0.000000
        CHANNELS 3 Zrotation Xrotation Yrotation
        JOINT LeftKnee
        {
            OFFSET  -0.000063 -41.789100   0.001657
            CHANNELS 3 Zrotation Xrotation Yrotation
            JOINT LeftAnkle
            {
                OFFSET   0.000078 -41.133200  -0.000113
                CHANNELS 3 Zrotation Xrotation Yrotation
                JOINT LeftToe
                {
                    OFFSET   0.000000  -6.358970  14.674500
                    CHANNELS 3 Zrotation Xrotation Yrotation
                    End Site
                    {
                        OFFSET   0.000000   0.000000   3.913200
                    }
                }
            }
        }
    }
    JOINT RightHip
    {
        OFFSET  -9.782990   0.000000   0.000000
        CHANNELS 3 Zrotation Xrotation Yrotation
        JOINT RightKnee
        {
            OFFSET   0.000053 -41.789200   0.000277
            CHANNELS 3 Zrotation Xrotation Yrotation
            JOINT RightAnkle
            {
                OFFSET   0.000030 -41.133200  -0.000150
                CHANNELS 3 Zrotation Xrotation Yrotation
                JOINT RightToe
                {
                    OFFSET   0.000000  -6.358960  14.674500
                    CHANNELS 3 Zrotation Xrotation Yrotation
                    End Site
                    {
                        OFFSET   0.000000   0.000000   3.913200
                    }
                }
            }
        }
    }
}
MOTION
Frames: 6
Frame Time:   0.016667
 -0.834528  89.587900   0.676297  -1.504550  -7.906110   0.358797   0.584680   4.448270  -0.585068   1.220590   8.890090  -1.221340   0.501560  -0.251036   0.001543   0.823950  -0.508930  -1.825330  -5.508020  -0.558297   1.986340 -73.444500  16.207500  -1.688050  -1.289760  -3.424190 -14.620200   7.904240  -8.197530   0.321633  37.040600  26.340400 -63.458000 -27.519300   0.000000   0.002577  -8.759680   0.001546  -0.000000 -24.481300   3.891300  -8.477100 -20.266200   0.008204   0.000825 -14.177400   0.011869   0.000460 -26.128100  -1.424490   2.898480 -26.164200  -0.000705  -0.001173 -17.425400   0.011032  -0.000823 -24.838000  -1.371100   2.929790 -24.873300  -0.009927   0.000363 -16.565700   0.000568   0.000216 -25.142100  -1.385330   2.922550 -37.766500  -0.004771   0.004413 -25.152500  -0.005994  -0.009950   8.700280   0.739650   5.247660  70.397300   3.178450  -4.707240  -0.130372  -7.705420   9.550000  -6.982640  -4.905500   2.402140 -39.192200  23.436400  59.058800  22.694700   0.005871  -0.002367   6.347320   0.000000  -0.001712  27.700100   7.982430  14.815800  23.514200  -0.000179  -0.003378  16.460000  -0.007798   0.001473  28.523800   3.335080   6.094790  39.186100  -0.004985  -0.008875  26.097900  -0.005434  -0.001609  27.448400   1.715740   3.298960  29.194200  -0.008219  -0.007987  19.429000  -0.003584   0.000000  35.093000   0.210880   0.304637  52.640400  -0.005777  -0.003089  35.058500  -0.006439   0.007078   1.385650  10.059800   2.612890   1.091460   0.004868   5.130890  -1.358720  -3.193980   0.612846  -0.000000   0.000000  -0.000000   2.882740   8.909250  -0.307282  -0.276775   1.751710  -6.115860  -0.922846  -4.272930  -1.866470  -0.000000   0.000000  -0.000000
 -0.839005  89.587900   0.676432  -1.504390  -7.915910   0.358848   0.584533   4.453570  -0.581787   1.220170   8.900700  -1.214810   0.509104  -0.243692   0.001560   0.836346  -0.494062  -1.820290  -5.508040  -0.558326   1.987130 -73.439900  16.227300  -1.688540  -1.292440  -3.439850 -14.603400   7.915840  -8.195360   0.338806  37.021900  26.312300 -63.420700 -27.537700   0.000000   0.002570  -8.768880   0.001550  -0.000000 -24.480800   3.882360  -8.458110 -20.264700   0.008204   0.000830 -14.179600   0.011868   0.000462 -26.123200  -1.424150   2.913260 -26.159300  -0.000710  -0.001170 -17.422100   0.011036  -0.000821 -24.838100  -1.371100   2.944560 -24.873700  -0.009932   0.000367 -16.566000   0.000564   0.000218 -25.136800  -1.385340   2.937450 -37.758700  -0.004771   0.004414 -25.147300  -0.005996  -0.009950   8.701450   0.741132   5.247670  70.391100   3.179190  -4.699570  -0.128303  -7.695210   9.575270  -6.965350  -4.901940   2.412790 -39.206500  23.452600  59.053800  22.692900   0.005875  -0.002367   6.346400   0.000000  -0.001702  27.688600   7.980790  14.817800  23.503700  -0.000183  -0.003372  16.452700  -0.007797   0.001470  28.524600   3.329930   6.091490  39.169900  -0.004984  -0.008874  26.087200  -0.005433  -0.001610  27.448400   1.715700   3.298970  29.184100  -0.008219  -0.007988  19.429000  -0.003583   0.000000  35.092800   0.210856   0.304749  52.640000  -0.005773  -0.003096  35.058200  -0.006441   0.007077   1.388410  10.079300   2.613050   1.090560  -0.001146   5.134860  -1.362830  -3.190210   0.608815  -0.000000   0.000000   0.000000   2.887460   8.916180  -0.312845  -0.276123   1.758280  -6.115450  -0.927877  -4.272990  -1.862690  -0.000000   0.000000   0.000000
 -0.846880  89.587900   0.676660  -1.504180  -7.933520   0.358907   0.584253   4.462800  -0.576297   1.219230   8.919200  -1.203870   0.520768  -0.228883   0.001576   0.855509  -0.464150  -1.809160  -5.508060  -0.558353   1.990240 -73.430200  16.255800  -1.689110  -1.296890  -3.464230 -14.579000   7.931340  -8.193200   0.355980  37.003200  26.284100 -63.383500 -27.563100   0.000000   0.002563  -8.781570   0.001554  -0.000000 -24.480300   3.873410  -8.439130 -20.263200   0.008206   0.000841 -14.184300   0.011866   0.000468 -26.118300  -1.423670   2.928040 -26.154300  -0.000721  -0.001163 -17.418800   0.011046  -0.000817 -24.841400  -1.371130   2.959340 -24.876800  -0.009948   0.000375 -16.568000   0.000552   0.000223 -25.131500  -1.385370   2.952350 -37.750900  -0.004772   0.004417 -25.142100  -0.005997  -0.009950   8.703580   0.744545   5.247680  70.379500   3.184190  -4.684760  -0.125243  -7.680960   9.612740  -6.948060  -4.898370   2.423430 -39.220500  23.474600  59.039300  22.691000   0.005880  -0.002368   6.345480   0.000000  -0.001691  27.673700   7.975580  14.819600  23.492100  -0.000188  -0.003356  16.444500  -0.007794   0.001463  28.526200   3.320900   6.082810  39.152200  -0.004982  -0.008871  26.075400  -0.005433  -0.001615  27.448600   1.715430   3.298980  29.172700  -0.008219  -0.007991  19.429000  -0.003583   0.000000  35.092500   0.210798   0.304907  52.639500  -0.005761  -0.003115  35.057900  -0.006448   0.007075   1.394490  10.098700   2.613290   1.089650  -0.007159   5.141750  -1.372550  -3.186440   0.601711  -0.000000   0.000000   0.000000   2.895660   8.930060  -0.320548  -0.275472   1.764850  -6.115040  -0.936197  -4.273410  -1.855990  -0.000000   0.000000   0.000000
 -0.853901  89.587900   0.676903  -1.504860  -7.950920   0.358444   0.583493   4.471630  -0.571890   1.217400   8.936940  -1.195060   0.528071  -0.212748   0.001575   0.867461  -0.431776  -1.793220  -5.508190  -0.554670   1.997290 -73.418200  16.270200  -1.687600  -1.302740  -3.483410 -14.567600   7.937760  -8.197900   0.355776  36.994800  26.283000 -63.395800 -27.571400   0.000000   0.002562  -8.785660   0.001544  -0.000000 -24.491100   3.879570  -8.447970 -20.272700   0.008212   0.000855 -14.192300   0.011866   0.000479 -26.128000  -1.423480   2.922000 -26.164000  -0.000734  -0.001150 -17.425300   0.011063  -0.000811 -24.855100  -1.371190   2.953200 -24.890200  -0.009974   0.000385 -16.576000   0.000534   0.000231 -25.142000  -1.385430   2.946250 -37.766600  -0.004774   0.004423 -25.152500  -0.005997  -0.009948   8.705790   0.749420   5.251500  70.367800   3.208660  -4.667210  -0.125212  -7.675090   9.632930  -6.949860  -4.914390   2.422570 -39.217400  23.488500  59.011000  22.715900   0.005880  -0.002386   6.357890   0.000000  -0.001693  27.673800   7.963510  14.800300  23.490800  -0.000183  -0.003331  16.443500  -0.007788   0.001451  28.528400   3.310520   6.064570  39.150500  -0.004977  -0.008866  26.074200  -0.005437  -0.001624  27.449500   1.708260   3.285420  29.171200  -0.008216  -0.007997  19.428400  -0.003585   0.000000  35.093800   0.210713   0.304975  52.641600  -0.005741  -0.003145  35.059300  -0.006459   0.007070   1.402700  10.077400   2.614650   1.089870   0.064083   5.148760  -1.387480  -3.217700   0.595213  -0.000000   0.000000   0.000000   2.902910   8.947280  -0.323538  -0.274745   1.764370  -6.117290  -0.942468  -4.274290  -1.848620  -0.000000   0.000000   0.000000
 -0.861710  89.587800   0.677052  -1.505950  -7.968570   0.357982   0.582389   4.479740  -0.567402   1.215000   8.953230  -1.186070   0.534522  -0.191315   0.001567   0.878063  -0.388580  -1.776550  -5.508440  -0.548060   2.004840 -73.406500  16.276100  -1.682840  -1.309110  -3.493930 -14.559900   7.940120  -8.202600   0.354328  36.986700  26.281400 -63.408800 -27.575400   0.000000   0.002562  -8.787590   0.001530   0.000000 -24.502500   3.885720  -8.456970 -20.282600   0.008220   0.000875 -14.197800   0.011866   0.000494 -26.138900  -1.423430   2.913840 -26.174900  -0.000753  -0.001134 -17.432500   0.011086  -0.000803 -24.866400  -1.371230   2.944900 -24.901800  -0.010010   0.000398 -16.584600   0.000510   0.000241 -25.152600  -1.385480   2.938050 -37.782300  -0.004777   0.004430 -25.163000  -0.005996  -0.009947   8.707870   0.755088   5.256790  70.357500   3.242150  -4.650250  -0.127142  -7.673110   9.647570  -6.952660  -4.936100   2.419410 -39.214500  23.496500  58.992200  22.745000   0.005880  -0.002412   6.372450   0.000000  -0.001695  27.677300   7.955010  14.781100  23.490600  -0.000176  -0.003298  16.443400  -0.007780   0.001434  28.530000   3.304020   6.051720  39.150200  -0.004972  -0.008858  26.074000  -0.005442  -0.001635  27.450400   1.701320   3.271860  29.171000  -0.008212  -0.008004  19.427900  -0.003590   0.000000  35.098200   0.210613   0.304998  52.648200  -0.005716  -0.003185  35.063700  -0.006473   0.007064   1.411670  10.056000   2.617470   1.090090   0.135324   5.154200  -1.403050  -3.248960   0.588288  -0.000000   0.000000   0.000000   2.910590   8.964740  -0.324396  -0.273388   1.763880  -6.123640  -0.949154  -4.275820  -1.843110   0.000000   0.000000   0.000000
 -0.870626  89.587800   0.676981  -1.506430  -7.984810   0.359310   0.581439   4.485710  -0.562834   1.212810   8.965240  -1.176890   0.540558  -0.162628   0.001502   0.888214  -0.330212  -1.764020  -5.508720  -0.541746   2.008950 -73.397400  16.262300  -1.673850  -1.315120  -3.486790 -14.554000   7.934040  -8.192370   0.348668  36.985800  26.279000 -63.408000 -27.578600   0.000000   0.002557  -8.789260   0.001524   0.000000 -24.503500   3.883730  -8.457140 -20.283000   0.008227   0.000903 -14.197800   0.011864   0.000511 -26.140000  -1.425900   2.911380 -26.176100  -0.000778  -0.001114 -17.433300   0.011113  -0.000791 -24.866900  -1.371230   2.942350 -24.902400  -0.010054   0.000416 -16.586900   0.000481   0.000254 -25.152200  -1.385480   2.935600 -37.781800  -0.004782   0.004439 -25.162700  -0.005994  -0.009945   8.709130   0.761029   5.258620  70.352200   3.272920  -4.637960  -0.129736  -7.679050   9.657060  -6.954690  -4.942840   2.412690 -39.210400  23.494400  58.998100  22.749900   0.005882  -0.002428   6.374960  -0.000039  -0.001680  27.686600   7.959330  14.783200  23.498700  -0.000174  -0.003257  16.449100  -0.007771   0.001415  28.530000   3.304950   6.053260  39.164200  -0.004966  -0.008850  26.083400  -0.005445  -0.001650  27.450400   1.701980   3.273440  29.183500  -0.008208  -0.008010  19.436100  -0.003597  -0.000044  35.108500   0.210508   0.304414  52.663500  -0.005687  -0.003231  35.073900  -0.006490   0.007056   1.419530  10.083800   2.621050   1.089840   0.107998   5.155740  -1.413310  -3.231180   0.581894  -0.000000   0.000000   0.000000   2.917930   8.979660  -0.317961  -0.271839   1.764310  -6.136900  -0.957143  -4.278490  -1.841890  -0.000000   0.000000  -0.000000
